<?xml version="1.0" encoding="iso-8859-1"?>
<!-- Generator: Adobe Illustrator 19.0.0, SVG Export Plug-In . SVG Version: 6.00 Build 0)  -->
<svg xmlns="http://www.w3.org/2000/svg" xmlns:xlink="http://www.w3.org/1999/xlink" version="1.1" id="Layer_1" x="0px" y="0px" viewBox="0 0 512 512" style="enable-background:new 0 0 512 512;" xml:space="preserve" width="512" height="512">
<g id="XMLID_1351_">
	<g id="XMLID_1014_">
		<g id="XMLID_1018_">
			<path id="XMLID_1023_" style="fill:#FFCB78;" d="M375.002,114.669H127.566L10.002,232.211V482c0,11.046,8.954,20,20,20h345     c11.046,0,20-8.954,20-20v-347.33C395.002,123.624,386.048,114.669,375.002,114.669z"/>
		</g>
		<path id="XMLID_1015_" style="fill:#F8F8F8;" d="M127.566,114.669v97.541c0,11.046-8.954,20-20,20H10.002L127.566,114.669z     M10.002,232.211"/>
	</g>
	<g id="XMLID_1020_">
		
			<rect id="XMLID_1025_" x="302.761" y="107.385" transform="matrix(0.7071 0.7071 -0.7071 0.7071 218.5174 -196.5252)" style="fill:#FFA2AB;" width="87.45" height="116.253"/>
		<path id="XMLID_1024_" style="fill:#FF7480;" d="M501.997,133.673L378.324,10l0,0c-20.285,20.285-28.915,49.463-22.93,77.518    l1.274,5.973l61.837,61.837l5.973,1.274C452.534,162.588,481.712,153.958,501.997,133.673L501.997,133.673z"/>
		<path id="XMLID_1022_" style="fill:#FF7480;" d="M336.302,237.531l1.45,3.295c16.393,37.26,12.949,80.266-9.165,114.442l0,0    l-85.93-85.93l-85.93-85.93l0,0c34.176-22.114,77.182-25.558,114.442-9.165l3.295,1.45L336.302,237.531z"/>
		<polygon id="XMLID_1021_" style="fill:#C0F0FB;" points="270.227,297.554 128.002,383.995 214.444,241.77   "/>
	</g>
	<g id="XMLID_300_">
		<path id="XMLID_1307_" d="M509.069,126.602L385.395,2.928c-3.905-3.904-10.237-3.904-14.143,0    c-22.774,22.775-32.359,55.177-25.638,86.676l0.14,0.658l-73.562,73.562c-39.742-16.333-84.695-12.237-120.897,11.189    c-2.535,1.641-4.193,4.339-4.512,7.342c-0.318,3.003,0.738,5.989,2.873,8.125l52.406,52.406l-82.606,135.915    c-2.395,3.939-1.785,9.005,1.474,12.265c1.929,1.928,4.489,2.929,7.075,2.929c1.785,0,3.582-0.477,5.19-1.455l135.915-82.606    l52.405,52.405c1.885,1.885,4.433,2.929,7.071,2.929c0.35,0,0.702-0.019,1.054-0.056c3.003-0.318,5.701-1.977,7.342-4.512    c23.426-36.202,27.521-81.156,11.189-120.897l36.83-36.83V444h-92.64c-5.523,0-10,4.477-10,10s4.477,10,10,10h92.64v18    c0,5.514-4.486,10-10,10h-345c-5.514,0-10-4.486-10-10V242.211h87.564c16.542,0,30-13.458,30-30v-87.542h117.761    c5.523,0,10-4.477,10-10s-4.477-10-10-10H127.566c-2.652,0-5.195,1.053-7.07,2.928L2.932,225.139    c-1.876,1.875-2.93,4.419-2.93,7.072V482c0,16.542,13.458,30,30,30h345c16.542,0,30-13.458,30-30V182.974l16.732-16.732    l0.658,0.14c6.625,1.414,13.29,2.106,19.897,2.106c24.806,0,48.794-9.759,66.779-27.744    C512.973,136.839,512.973,130.507,509.069,126.602z M107.566,222.211H34.148l41.634-41.627l41.784-41.776v73.403    C117.566,217.725,113.08,222.211,107.566,222.211z M356.669,107.634l47.695,47.694l-16.431,16.431    c-0.001,0.001-0.002,0.002-0.003,0.003l-51.628,51.628l-47.694-47.694L356.669,107.634z M157.838,354.16l58.539-96.315    l37.776,37.777L157.838,354.16z M326.405,338.944l-76.676-76.676c-0.002-0.002-0.003-0.003-0.005-0.005l-76.671-76.672    c29.325-14.614,63.661-15.583,94.09-2.194l1.578,0.694l59.184,59.184l0.694,1.577    C341.987,275.284,341.018,309.619,326.405,338.944z M426.565,146.822l-3.08-0.657l-28.824-28.823l-28.83-28.83l-0.657-3.08    c-4.596-21.544,0.477-43.622,13.62-60.82l108.592,108.592C470.187,146.346,448.112,151.417,426.565,146.822z"/>
		<path id="XMLID_1432_" d="M259.432,461.069c1.86-1.86,2.93-4.44,2.93-7.07c0-2.63-1.07-5.21-2.93-7.07    c-1.86-1.86-4.44-2.93-7.07-2.93s-5.21,1.07-7.07,2.93c-1.86,1.86-2.93,4.44-2.93,7.07c0,2.63,1.07,5.21,2.93,7.07    c1.86,1.86,4.44,2.93,7.07,2.93S257.572,462.929,259.432,461.069z"/>
		<path id="XMLID_1433_" d="M295.332,124.669c2.63,0,5.2-1.07,7.07-2.93c1.86-1.86,2.93-4.44,2.93-7.07s-1.07-5.21-2.93-7.07    c-1.87-1.86-4.44-2.93-7.07-2.93c-2.64,0-5.21,1.07-7.08,2.93c-1.86,1.86-2.92,4.44-2.92,7.07s1.06,5.21,2.92,7.07    C290.122,123.599,292.692,124.669,295.332,124.669z"/>
	</g>
</g>















</svg>
